<?xml version="1.0" encoding="utf-8"?>
<!-- Generator: Adobe Illustrator 23.0.6, SVG Export Plug-In . SVG Version: 6.00 Build 0)  -->
<svg version="1.1" id="axefull" xmlns="http://www.w3.org/2000/svg" xmlns:xlink="http://www.w3.org/1999/xlink" x="0px" y="0px"
	 viewBox="0 0 300 300" style="enable-background:new 0 0 269 290;" xml:space="preserve" class="svg">
<style type="text/css">
	.st0{fill:#FFFFFF;stroke:#000000;stroke-miterlimit:10;}
	#axe:hover {cursor: pointer; }
	#axe:hover {fill: #333;}
</style>
<g id="axe">
	<path id="axehandle" d="M14.2,247.9L126.4,82.7L149,98.1l-114.7,169c-3.3,4.8-10.1,5.9-15.2,2.4l0,0
		C11.7,264.5,9.5,254.8,14.2,247.9z"/>
	<path id="axehead" class="st0" d="M147.8,97.3c0,0,39.3,31.5,43.2,68.9l66.2-97.5c-6.6,1.3-13.5,1.4-20.5,0.7
		C188,64.6,134.4,18.5,134.4,18.5L102,66.2l15.8,10.7L147.8,97.3z"/>
	<path id="axeblade" d="M232,68.9c0,0,2.1,3,25.3-0.3l-66.2,97.5c0,0,1.2-11-7.8-25.4l48.8-71.9l-39.8,58.6"/>
</g>
</svg>
