<?xml version="1.0" encoding="utf-8"?>
<!-- Generator: Adobe Illustrator 23.0.6, SVG Export Plug-In . SVG Version: 6.00 Build 0)  -->
<svg version="1.1" id="cat" xmlns="http://www.w3.org/2000/svg" xmlns:xlink="http://www.w3.org/1999/xlink" x="0px" y="0px"
	 viewBox="0 0 300 300" style="enable-background:new 0 0 269 290;" xml:space="preserve">
<style type="text/css">
	.st0{fill:#FFFFFF;stroke:#000000;stroke-miterlimit:10;}
	.st1{fill:#FFFFFF;}
	.st2{fill:none;stroke:#000000;stroke-miterlimit:10;}
	#cat:hover {cursor: pointer; }
	#cat:hover {fill: #333;}
</style>
<path id="head" d="M252.4,162.1c0,65.7-53.2,118.9-118.9,118.9S14.6,227.8,14.6,162.1c0-34.2,14.4-65,37.5-86.7
	c21.3-20,49.9-32.2,81.4-32.2C199.2,43.2,252.4,96.4,252.4,162.1z"/>
<polygon id="leftear" points="27.7,18 92.2,66.4 27.7,106.7 "/>
<polygon id="rightear" points="241.4,26.5 176.9,74.9 241.4,115.2 "/>
<polygon class="st0" points="106.7,147 85.4,118.4 61.8,147 55.9,139.2 84.2,106.7 111.4,140.5 "/>
<polygon class="st0" points="213.6,146.6 192.4,117.9 168.8,146.6 162.9,138.8 191.2,106.3 218.3,140.1 "/>
<rect x="190" y="192.3" class="st0" width="76.6" height="6.1"/>
<rect x="2.5" y="192.3" class="st0" width="76.6" height="6.1"/>
<rect x="4.6" y="218.5" transform="matrix(0.8898 -0.4564 0.4564 0.8898 -96.3748 43.9943)" class="st0" width="76.6" height="6.1"/>
<rect x="221.8" y="182.9" transform="matrix(0.4564 -0.8898 0.8898 0.4564 -74.5761 320.3403)" class="st0" width="6.1" height="76.6"/>
<rect x="186.6" y="165.8" transform="matrix(0.8898 -0.4564 0.4564 0.8898 -52.2588 121.2633)" class="st0" width="76.6" height="6.1"/>
<rect x="40.5" y="130.4" transform="matrix(0.4564 -0.8898 0.8898 0.4564 -126.4812 130.4483)" class="st0" width="6.1" height="76.6"/>
<ellipse class="st0" cx="136.6" cy="221.6" rx="39.3" ry="27.2"/>
<polygon class="st1" points="123.5,164.1 143.6,164.1 133.5,174.2 "/>
<path class="st2" d="M135.6,191.3v26.2c0,0-18.1,4-24.2-6.1"/>
<path class="st2" d="M135.6,191.3v26.2c0,0,18.1,4,24.2-6.1"/>
</svg>
