<?xml version="1.0" encoding="utf-8"?>
<!-- Generator: Adobe Illustrator 23.0.6, SVG Export Plug-In . SVG Version: 6.00 Build 0)  -->
<svg version="1.1" id="ghost" xmlns="http://www.w3.org/2000/svg" xmlns:xlink="http://www.w3.org/1999/xlink" x="0px" y="0px"
	 viewBox="0 0 300 300" style="enable-background:new 0 0 269 290;" xml:space="preserve">
<style type="text/css">
	.st0{fill:#FFFFFF;}
	.st1{fill:none;stroke:#000000;stroke-miterlimit:10;}
	.st1:hover {fill: #333;}
	#ghost:hover {cursor: pointer; }
	#ghost:hover {fill: #333;}
</style>
<g>
	<path class="st0" d="M135.9,286c-1.4,0-2.9-0.4-4.3-1.1c-3.1-1.6-6.5-2.5-9.9-2.5c-2.5,0-4.9,0.5-7,1.4c-2.5,1.1-5.3,1.6-8,1.7
		h-0.1c-7.1,0-11.8-4.1-14-6.1c-0.8-0.8-1.2-1.1-1.6-1.1h-0.2l-0.2,0.1c-5.1,3.6-9.7,5.4-13.6,5.4l0,0c-3,0-5.7-1-7.9-3.1
		c-3-2.7-7-4.3-11.2-4.3c-1.2,0-2.5,0.1-3.7,0.4c-2.3,0.5-4.4,0.8-6.3,0.8c-2.9,0-5-0.6-5.9-1.8c-1.2-1.5-0.6-4.4,1.7-8.1
		c15.9-11.7,21.7-41.2,17.2-87.8c-3.3-34.6-11.3-66.3-11.4-66.6c-0.2-0.6-15.2-53.5,7.3-83.4C67.1,16.4,83.5,9.5,105.6,9.5
		c5.5,0,11.4,0.4,17.6,1.3c0.4,0,30.3,0.9,48.4,23.7c13.9,17.5,17.5,43,10.7,75.8c-0.2,1-0.4,2-0.7,3
		c-19,84.6,28.6,127.8,43.7,138.9c4.8,3.6,7.5,8.8,7.1,13.9c-0.4,4.8-2.8,7.3-7.1,7.3c-1,0-2.1-0.1-3.3-0.4
		c-1.4-0.3-2.8-0.5-4.2-0.5c-5,0-9.7,1.8-13,5c-2.9,2.8-6.4,4.2-10.4,4.2c-3.2,0-6.8-0.9-10.6-2.8c-2-1-4.3-1.5-6.6-1.5
		c-3.5,0-6.9,1.1-9.6,3.2c-2.5,1.9-4.9,2.9-7,2.9c-2.3,0-4.4-1.1-6.3-3.3c-1.1-1.2-2.7-1.9-4.4-1.9c-1.8,0-3.5,0.8-4.6,2
		C142.2,284.2,139.1,286,135.9,286z"/>
	<path d="M105.6,10L105.6,10c5.5,0,11.4,0.4,17.6,1.3l0.1,0h0.1c0.3,0,30,0.9,48,23.5c13.8,17.4,17.4,42.7,10.6,75.4
		c-0.2,1-0.4,2-0.7,3c-19.1,84.9,28.8,128.2,43.9,139.5c4.7,3.5,7.3,8.5,6.9,13.4c-0.4,4.6-2.5,6.8-6.6,6.8c-1,0-2-0.1-3.2-0.4
		c-1.4-0.3-2.9-0.5-4.4-0.5c-5.1,0-9.9,1.9-13.4,5.1c-2.8,2.7-6.2,4-10.1,4c-3.2,0-6.7-0.9-10.4-2.7c-2.1-1-4.4-1.5-6.8-1.5
		c-3.6,0-7.1,1.2-9.9,3.3c-2.4,1.8-4.7,2.8-6.7,2.8c-2.1,0-4.1-1-5.9-3.1c-1.1-1.3-2.9-2.1-4.8-2.1c-2,0-3.8,0.8-5,2.2
		c-2.9,3.6-5.9,5.4-8.9,5.4c-1.3,0-2.7-0.4-4-1.1c-3.2-1.7-6.7-2.6-10.1-2.6c-2.6,0-5,0.5-7.2,1.5c-2.4,1-5.1,1.6-7.8,1.6h-0.1
		c-6.9,0-11.5-4.1-13.6-6c-0.9-0.9-1.3-1.2-1.9-1.2c-0.2,0-0.4,0.1-0.6,0.2c-5,3.5-9.5,5.3-13.3,5.3c-2.9,0-5.4-1-7.5-3
		c-3.1-2.8-7.2-4.4-11.5-4.4c-1.3,0-2.5,0.1-3.8,0.4c-2.3,0.5-4.4,0.8-6.2,0.8c-2.7,0-4.7-0.6-5.5-1.6c-1-1.3-0.4-4,1.7-7.4
		c8.8-6.5,14.6-18.8,17.2-36.3c2.1-14,2.1-31.4,0.2-51.8c-3.3-34.7-11.3-66.3-11.4-66.7c0-0.1-3.9-13.5-4.8-30.3
		c-0.9-15.5,0.4-37.1,12.1-52.6C67.4,16.8,83.7,10,105.6,10 M105.6,9C18.9,9,49.2,113.4,49.2,113.4s32.3,126.1-5.7,153.9
		c-0.8,1.3-3.8,6.1-1.7,8.7c1,1.3,3.3,2,6.3,2c1.9,0,4-0.3,6.4-0.8c1.2-0.3,2.4-0.4,3.6-0.4c4,0,7.9,1.5,10.8,4.2
		c1.9,1.8,4.6,3.2,8.2,3.2c3.6,0,8.2-1.5,13.9-5.5c0,0,0,0,0.1,0c0.8,0,6.1,7.2,15.6,7.2c0,0,0.1,0,0.1,0c2.9,0,5.7-0.6,8.2-1.7
		c2.2-0.9,4.5-1.4,6.8-1.4c3.3,0,6.7,0.9,9.7,2.5c1.6,0.8,3.1,1.2,4.5,1.2c4,0,7.3-2.8,9.7-5.8c1-1.2,2.6-1.9,4.2-1.9
		c1.5,0,3,0.6,4,1.7c2.2,2.5,4.4,3.4,6.7,3.4c2.6,0,5.2-1.3,7.4-3c2.6-2,6-3.1,9.3-3.1c2.2,0,4.3,0.5,6.3,1.4
		c4.2,2,7.8,2.8,10.9,2.8c4.8,0,8.3-1.9,10.8-4.3c3.3-3.1,7.9-4.8,12.7-4.8c1.4,0,2.8,0.1,4.1,0.4c1.3,0.3,2.4,0.4,3.4,0.4
		c5.4,0,7.2-3.7,7.6-7.7c0.4-5.5-2.4-10.7-7.3-14.3c-16.8-12.5-62.2-55-43.5-138.4c0.2-1,0.4-2,0.7-3.1
		c20.5-98.5-59.6-100.1-59.6-100.1C116.9,9.4,111,9,105.6,9L105.6,9z"/>
</g>
<path class="st1" d="M182.6,90.8"/>
<ellipse cx="88.5" cy="68.1" rx="17.5" ry="21.2"/>
<ellipse cx="151" cy="70.3" rx="13.3" ry="15.9"/>
<ellipse cx="122.6" cy="111.2" rx="23.3" ry="15.9"/>
</svg>
