<?xml version="1.0" encoding="utf-8"?>
<!-- Generator: Adobe Illustrator 23.0.6, SVG Export Plug-In . SVG Version: 6.00 Build 0)  -->
<svg version="1.1" id="mummy" xmlns="http://www.w3.org/2000/svg" xmlns:xlink="http://www.w3.org/1999/xlink" x="0px" y="0px"
	 viewBox="0 0 269 290" style="enable-background:new 0 0 269 290;" xml:space="preserve" class="svg">
<style type="text/css">
	.st0{fill:none;stroke:#000000;stroke-miterlimit:10;}
	.st1{fill:#FFFFFF;stroke:#000000;stroke-miterlimit:10;}
	.st1;hover {fill: #333;}
	#mummy:hover {cursor: pointer; }
	#mummy:hover {fill: #333;}
</style>
<ellipse id="mummyhead" class="st0" cx="127.6" cy="135.6" rx="113.6" ry="132.6"/>
<path id="wraps8" class="st1" d="M218.5,70.1L18.3,172.8c-4.2,2.1-5.8,7.3-3.7,11.4l10.6,20.7c2.1,4.2,7.3,5.8,11.4,3.7l200.3-102.7
	c4.2-2.1,5.8-7.3,3.7-11.4l-10.6-20.7C227.8,69.6,222.7,67.9,218.5,70.1z"/>
<path id="wraps7" class="st1" d="M242.1,66.9H20.5c-3.6,0-6.5,2.9-6.5,6.5v17.8c0,3.6,2.9,6.5,6.5,6.5h221.6c3.6,0,6.5-2.9,6.5-6.5
	V73.4C248.6,69.8,245.7,66.9,242.1,66.9z"/>
<path id="wraps6" class="st1" d="M237.4,36.1H34c-3.6,0-6.5,2.9-6.5,6.5v17.8c0,3.6,2.9,6.5,6.5,6.5h203.4c3.6,0,6.5-2.9,6.5-6.5
	V42.6C243.9,39,240.9,36.1,237.4,36.1z"/>
<path id="wraps5" class="st1" d="M216.1,3.5H51.3c-3.6,0-6.5,2.9-6.5,6.5v19.6c0,3.6,2.9,6.5,6.5,6.5H216c3.6,0,6.5-2.9,6.5-6.5V10
	C222.6,6.4,219.6,3.5,216.1,3.5z"/>
<path id="wraps4" class="st1" d="M233.1,101.3L27.6,194.9c-4.3,1.9-6.2,7-4.2,11.3l9.6,21.1c2,4.3,7,6.2,11.3,4.2l205.6-93.6
	c4.3-1.9,6.2-7,4.2-11.3l-9.6-21.2C242.4,101.2,237.4,99.3,233.1,101.3z"/>
<path id="wraps3" class="st1" d="M235.7,141.2L49.9,206c-4.4,1.6-6.8,6.4-5.2,10.8l7.7,21.9c1.5,4.4,6.4,6.8,10.8,5.2l185.8-64.8
	c4.4-1.6,6.8-6.4,5.2-10.8l-7.6-21.9C245,142,240.1,139.6,235.7,141.2z"/>
<path id="wraps2" class="st1" d="M229.6,161.1L68.3,225.5c-4.4,1.7-6.5,6.7-4.7,11.1l8.6,21.6c1.7,4.4,6.7,6.5,11.1,4.7l161.4-64.4
	c4.4-1.7,6.5-6.7,4.7-11.1l-8.6-21.6C238.9,161.5,234,159.4,229.6,161.1z"/>
<path id="wraps1" class="st1" d="M222.8,196.3L93.3,248c-4.4,1.7-6.5,6.7-4.7,11.1l8.6,21.6c1.7,4.4,6.7,6.5,11.1,4.7l129.5-51.7
	c4.4-1.7,6.5-6.7,4.7-11.1l-8.6-21.6C232.1,196.7,227.1,194.6,222.8,196.3z"/>
<ellipse id="eye" transform="matrix(0.9956 -9.350180e-02 9.350180e-02 0.9956 -10.7388 6.4331)" cx="63.3" cy="117.8" rx="20.1" ry="18.9"/>
</svg>
