<?xml version="1.0" encoding="utf-8"?>
<!-- Generator: Adobe Illustrator 23.0.6, SVG Export Plug-In . SVG Version: 6.00 Build 0)  -->
<svg version="1.1" id="spider" xmlns="http://www.w3.org/2000/svg" xmlns:xlink="http://www.w3.org/1999/xlink" x="0px" y="0px"
	 viewBox="0 0 269 290" style="enable-background:new 0 0 269 290;" xml:space="preserve">
<style type="text/css">
	.st0{fill:#FFFFFF;}
	#spider:hover {cursor: pointer; }
	#spider:hover {fill: #333;}
</style>
<ellipse cx="135.3" cy="154.8" rx="55.6" ry="69.1"/>
<path d="M94.1,196.3l14.6,16.3c0,0-28.1,30.2-23.9,68.6S53.5,223,94.1,196.3z"/>
<path d="M180,195l-14.6,16.3c0,0,28.1,30.2,23.9,68.6C185.2,318.2,220.6,221.7,180,195z"/>
<path d="M85.9,122.1l11.9-18.8c0,0-32.2-24.5-33.8-63.1C62.3,1.7,42,103.4,85.9,122.1z"/>
<path d="M182.8,124.3l-11.9-18.8c0,0,32.2-24.5,33.8-63.1C206.4,3.9,226.8,105.6,182.8,124.3z"/>
<path d="M189.7,164.6l-5.4-31.4c0,0,54.4,1.5,77-39.9C283.8,52,256.1,183,189.7,164.6z"/>
<path d="M80.5,163.2l5.3-31.4c0,0-54.4,1.5-76.9-39.9S14,181.6,80.5,163.2z"/>
<ellipse cx="134.1" cy="61.3" rx="34.6" ry="38.7"/>
<ellipse class="st0" cx="113.8" cy="74.8" rx="5.3" ry="5.9"/>
<ellipse class="st0" cx="107.9" cy="56.2" rx="4.5" ry="5"/>
<ellipse class="st0" cx="123.3" cy="59.8" rx="4.1" ry="4.6"/>
<ellipse class="st0" cx="147.3" cy="59.8" rx="4.1" ry="4.6"/>
<ellipse class="st0" cx="160.4" cy="56.2" rx="4.5" ry="5"/>
<ellipse class="st0" cx="155.2" cy="74.8" rx="5.3" ry="5.9"/>
<path d="M120.3,40.6l7.1-8.8c0,0-17.8-10.5-18-27.9S95.8,33,120.3,40.6z"/>
<path d="M149.7,40.6l-7.1-8.8c0,0,17.8-10.5,18-27.9S174.2,33,149.7,40.6z"/>
</svg>
